<svg xmlns="http://www.w3.org/2000/svg" width="252" height="12" viewBox="0 0 252 12"><path d="M252,5.232c-4.358-.255-4.411-1.687-8.1-1.089l.622.284c-2.3.7-4.66-.453-6.672-.424.566-.187.681-.524.415-.679-4.448.718-8.825.176-13.9.612l-1.526-.906-.095.69c-2.481.3-.537-.97-2.136-.9.608,0,.5.11.622.284-2.879-.783-1.6.641-3.215.423.768.738,3.115.264,2.394,1.244-2.873-.782-7.341-.349-7.762-2.01-5.335.668-11.947-.372-16.431-.514-.612.292.381.228.146.46-1.773-.962-5.95.671-5.978-.188a2.907,2.907,0,0,0-1.448,1.1,15.6,15.6,0,0,0-3.946-.73l1.058.237-.115.116-1.5-.335.056-.054c-3.6-.245-7.757-.037-11.021-.958,1.694.505-.041.94.246,1.268-1.739-1.25-5.563-1.285-8.695-1.149.014.287-.236.515.142.743l-1.87-.562.247.343c-3.35.253-7-1.268-9.209-.622,1.368.162,1.376.449,1.513.906a52.826,52.826,0,0,1-7.468-.463c.151.084.248.18.252.284a6.949,6.949,0,0,1-2.369-.384l-.1.687c-1.434-.318-3.287.035-4.991-.513-.669.754-4.129-.7-6.1-.381-.752-.167,1.642.789-.471.748-.3-1.49-2.741-.037-2.906-1.642l-1.846.585-.407-.8c-1.569,1.5-2.39-.671-4.724-.2.124.173.373.229.254.343-.754-.167-2.494-.268-1.146-.68-1.244.009-5.477-.363-3.577.484-.138-.459,1.6-.069,2.356.1-.1.689-1.969.417-2.433,1.165a3.527,3.527,0,0,0-.484-.307l-.267.425C117.08,1.51,114.7,2.056,113,1.078c-.1.213-.508.378-1.311.329l-.034-.86-2.485.018,1.164,1.251c-2.728.25-4.647-1.171-6.886-1.382-.577,1.436-4.372-.542-6.312.731l1.751.389c-3.741-.261-4.336.6-7.824.112A41.224,41.224,0,0,0,98.351.3C94.023.9,90.875-.51,86.913.322c.265.34,1.259.562.289.913C86.429.5,83.47,1.263,84.057.4c-1.23.293-1.444,1.1-2.2,1.217L77.731.557l.127.17c-7.02,2-13.1-1.341-20.146-.488L57.847.7l-1.5-.577c.818.371-.866.508-.965.879L50.865,0a.994.994,0,0,0,1.272,1.138c-1.714.47-3.486-.49-4.979-.539l.509.4-1.5-.334.017.572C43.691.969,40.6,1.563,39.692.651l.292.917L37.345.842l1.511.619a62.856,62.856,0,0,1-8.1-.514l.267.34c-.485.175-.868-.05-1.375-.161l.391.511c-4.467-.14-5.689,1.015-10.675.477-1.359.123.753.166.775.453a4.283,4.283,0,0,1-2.867-.209c.395.8,2.5.555.9,1.2-1.134-.393.774.74-1.221.583l-.782-1.026c-1.11.178-.222.8-1.976.7-2-.446,2.451-1.163-.775-1.313-1.617.068-3.4,2.374-6.536,1.822-2.7.535,1.422,1.6-2.318,1.334l2.394.672c-.618.29-.228.8-1.848.585a4.92,4.92,0,0,0-2.39-.958c3.5.777-3.072,1.168.189,2.176L1.693,8.093c.152.039.19.139.109.217l-1.615.07c1,.224,3.366.318,2.265,1.074L.111,9.641c.624.568-.233.8-.1,1.262L6.9,12c-.271-.341-1.261-.563-.893-.909,1.837-.3,1.5.618,3.225.146l-.762-.452c.137.172.379.227,0,.286-.6.293-.87-.05-.875-.336.6-.576,2.346-.188,2.865.21,2.235-.073.459-1.036.952-1.211,1.156.965,3.733-.025,5.117.423l-.889-.626a6.082,6.082,0,0,1,4.221.087L19.477,9.1c2.368.1,3.542-1.63,5.345.191l-.249-.341c.972-.16,2.446-.543,3.377,0a.635.635,0,0,1,.581-.544c.526.7,1.536.17,2.968.045-.951-.183-.646-1.093-1.648-1.314,2.209-.934,2.025,1.016,3.881,1,1.113-.466-1-.508-1.265-.851,2.866.5,5.888-2.1,7.7-.283l-1.229.58c1.139.394,1.756.39,1.618.219a.552.552,0,0,1-.619-.283c3.44-.94,5.381,1.338,8.855.969-.258-.341-.754-.453-.776-.739,1.6-.354,1.558,1.765,4.141,1.059l-.507-.4c.86-.238,1.5.333,1.382.449.068-1.547,5.468.075,7.268-1.942,1.266.85,4.889,1.512,6,1.045,1.588-.928-1.406-1.021-.817-1.886,1.245-.007,1.9.847,3.751.548.031.859-3.663,1.745-.176,2.236l.487-.463a3.382,3.382,0,0,1-1.363.125c-1.008-.508.606-.577.836-.808l3.744.26c.273.916-1.965.7-2.2.933,2.962-.193,6.527-1.535,9.282-.926l-.261-.342c3.512.779,2.05-1.675,4.844-.206,1.475-.239-.532-.971,1.7-1.043.63-.005.261.341.148.458,2.739.324,1.205-.869,3.732-.027l-.544-.969c3.012.666,6.168,2.363,8.771,1.944-.156-.746-1.765-.677-2.406-1.244,3.526,1.349,8.457.168,11.714.89-.974.637,1.543,1.479-.544,2.008-.539-.968-1.518-.332-2.635-.44,1.806,2.109,7.552-1.026,8.1.8l.477-.748c.5.111,1.768.677.894.91l3.6-.481c-1.262-.565-3.923-1.865-4.759-1.057-1.022-.8,1.472-.527.567-1.437,2.405,1.244,1.478-.527,3.969-.256-1.127,1.082,2.479,1.466,2.366,1.989a6.747,6.747,0,0,1,3.328.667c1.441.1,4.745-.771,7.058-.4-.876-.338-2.26-.786-2.158-1.474,1.134.392,2.378.382,2.593-.42-4.026-1.463-1.3,1.841-4.942.894-.9-.911-1.9-1.134-3.775-1.4.854-.524.478-.749.829-1.383,2.3,1.93,5.975.187,8.981,1.141,1.266.564.313,1.774,3.181,1.985l-2.464.588c2.709-.534.636.568,2.874.781l-.889-.624a3.6,3.6,0,0,1,2.63.442l-1.159-.967c.738-.12,2.1-.242,2.122.329a.942.942,0,0,0,.256-.588c.144.161.493.263,1.357.232-.506-.11-.872-.049-.882-.335,3.294.228.77-1.047,2.811-.954-.323-.224.258-.5.989-.622-.049,1.523,4,1.723,5.064,2.566l-.012-.022,2.756.611c-.559-.124.044-.539.845-.7l-.13.007c.876-.236-1.041-1.654,1.586-1.214l1.38.45c-.246-.055-.009-.288.121-.4l1.42.413c2.175-1.422,4.1.8,6.662.1-.738.121-1.862.013-1.381-.45a2.271,2.271,0,0,1,1.629.218l-.129-.169,4.874.938c-.4-.512-3.123-.55-1.9-1.13.721-.695,2.121.041,3,.093-.112.4-1.726.758-.1.973.2-.2,1.75-.614,1.018-.9,1.671.41,4.095.657,5.589,1.371.475-.176-.271-.342-.52-.4l-.121.114c-1.006-.223-.154-1.031-2.13-.614-.165-1.32,2.848-.366,4.58-.55l-2.762-.9c4.653-1.809,10.934.15,15.543.175-1.353.411-2.483.02-2.322,1.049a33.874,33.874,0,0,0,5.345.478l-.245-.055c1.477-.528,3.494.489,4.463-.434-.638-.567-2.1.534-2.132-.615l3.6.089c-1.133-.68-3.6-.089-4.978-.251-.99.064,1.993.158,1.522.907a8.215,8.215,0,0,1-5.785-1.851c-1.008-.8,1.469-.811,2.095-.817a13.7,13.7,0,0,0,8.605,1.2l1.832-.872c1.651.791.949,2.343,3.932,2.148l-.89-.624a3.956,3.956,0,0,1,1.4-.322c-1.282-.471-2.664-1-3.824-1.495,1.7-1.328,4.875.656,7.37.923-.13-.169-1-.221-1.261-.562,3.722-.314,7.619,1.263,10.494,1.473,1.215-.581-2.388-.385-1.8-1.247,1.511.331,3.218-.424,3.622.375-.66-1.14,3.474-.083.583-1.15,5.447-.5,11.444.55,16.949,1.2-.267-.343-.267-.629-.036-.86-1.863.014-4.6-.312-5.634-1.106,1.224-.583,2.9.78,3.248.435-.626-.282-1.866-.273-1.888-.846,1.595-.643,2.489.267,3.611.376l-.609.29c3.5.777,1.932,1.992,5.648,1.678,1.346-.7-.012-.571-.035-1.432.875.338,3.7-.6,4.607.313l-2.249.073c1.574.242,3.063.239,4.154.537a.755.755,0,0,0-.538-.448c1.251.277,2.856.208,3.5.779l.352-.922c-.746.407-2.977.48-3.354-.032.215-.805,2.472-.3,3.459-.369M13.273,5.594l.744.167c.381.227.139.457.272.629-.872-.052-2.008-.445-1.016-.8M24.787,8.435c-.741-.166-1.382-.734-2.365-.384.13.17.006.288.626.281l-1.357.127c-1.552-.808-.07-1.059,1.381-1.324a.8.8,0,0,1,.43-.41c.231-.083.446.06.676.166a1.753,1.753,0,0,0,.679-.29l.137.173a.641.641,0,0,1-.816.116c-.329.09-.713.168-1.107.244-.252.579,1.305.976,1.715,1.3m7.37-6.755c1.469-.528,1.254.565,2.636.726-1.844.586-1.519-.62-2.636-.726m2.4,1.244a3.035,3.035,0,0,1,1.981-.131,2.225,2.225,0,0,1-1.981.131m7.208,4.018c-.387-.512.488-.174.857-.522L45,6.8c-.457,1.035-2.117-.043-3.227.138M59.05,6.933c-.028-.572-2.255-.5-2.505-.555-.394-.8.474-.461,1.339-.983-.494.175.646.856,1.756.675Zm2.734.038c1.368-.126,2.862-.079,3.212-.422.149.455-2.565,1.279-3.212.422M74.6,3.559l.745-.118c.59-.578-1.142-.394-1.282-.852.871-.237,2.874.209,2.133.328-1.863.3.895.91-.327,1.206l.976-.063c-1.584.639-1.131-.683-2.244-.5m2.438-1.451c1.165-.857,1.914.03,2.58.383-1.167-.414-1.631.617-2.58-.383M96.46,7.129l1.511.333-.126.115-1.5-.332ZM91.75,3.666c.879.053,3.279,1.3,2.859-.076l.384.511-.362.061,1.5.332c-1.968.7-3.375-.607-4.38-.828m14.5-1.19a2.685,2.685,0,0,0,1.124.106c-.263-.342-1.278-.849-.534-.969.516.4,2.25.5,2.274,1.071-1.508-.619-2.574.992-2.865-.209m6.376-.891a1.17,1.17,0,0,1,.677.038l-.677-.038c-.55.114-.953.476-1.069-.062Zm-1.6,6.071-.763-.453,1.358-.125Zm-1.315-2.283c.4,1.088,3.243.434,3.869.719-1.475.238-4.832.492-3.869-.719m4.2-.487a1.9,1.9,0,0,1,.721.047c.776.014,1-.089.917.457.376.228.99-.063,1.371.163-1.512.48-1.417-.39-2.288-.62-.2,0-.432-.013-.721-.047m51.966.436a.628.628,0,0,0-.032-.192.185.185,0,0,1,.032.192m-9.134-1.885,2.52-.406a1.736,1.736,0,0,1,.816-.133l-.816.133c-.965.405-1.167,1.511-2.52.406m5.417,2.2c-2-.445-2.141-.9-3.671-1.809,1.984-.413,2.525.842,2.289,1.359,1.382.45,1.114-.181,1.853-.3Zm6.628,1.329-3.363-.321,3.269.193-.411-.558.63.571-.218-.013Zm2.689-1.681c1.275.283.459.548.769.757a4.152,4.152,0,0,0,1,.2,2.621,2.621,0,0,1-1-.2c-.525-.173-.924-.435-.769-.757m-2.081,1.1,2,.444-1.006-.508,3.009.954c-1.726.47-3.732-.261-4-.889m3.763-2.434c.236-.516,2.6-.419,3.237-.136-1,.064-3.6.2-3.237.136m3.766-1-.823-.335c.812.033.906.18.823.335l.685.285c-1.786.352-.867.014-.685-.285m24.245,2.239a21.339,21.339,0,0,0-6.178.551.573.573,0,0,1-.506.241,1.461,1.461,0,0,1,.506-.241.45.45,0,0,0-.1-.5.976.976,0,0,1-.562-.293.731.731,0,0,1,.562.293A3.762,3.762,0,0,0,196.94,5.1c-.26-.341-1.256-.275-1.641-.5,1.475-.812,4.791,1.628,3.845-.714.626.281,2.763.9,2.024,1.3m9.961.5.369-.344.868.051Zm16.012-.571.721-.692.771.74Z" transform="translate(0)" fill="#270042"></path></svg>